<svg width="24" height="24" viewBox="0 0 24 24" fill="none" xmlns="http://www.w3.org/2000/svg">
<path d="M9 15H5.90001C5.50001 15 5.20401 14.821 5.01201 14.463C4.82001 14.105 4.841 13.759 5.075 13.425L12.55 2.675C12.7167 2.44167 12.9333 2.27933 13.2 2.188C13.4667 2.09667 13.7417 2.10067 14.025 2.2C14.3083 2.29933 14.5167 2.47433 14.65 2.725C14.7833 2.97567 14.8333 3.24233 14.8 3.525L14 10H17.875C18.3083 10 18.6127 10.1917 18.788 10.575C18.9633 10.9583 18.909 11.3167 18.625 11.65L10.4 21.5C10.2167 21.7167 9.99167 21.8583 9.72501 21.925C9.45834 21.9917 9.2 21.9667 8.95 21.85C8.7 21.7333 8.50434 21.5543 8.363 21.313C8.22167 21.0717 8.16734 20.809 8.2 20.525L9 15Z" fill="white"/>
</svg>
