<svg width="24" height="24" viewBox="0 0 24 24" fill="none" xmlns="http://www.w3.org/2000/svg">
<path d="M14.825 13.475C15.1584 13.475 15.4377 13.3627 15.663 13.138C15.8884 12.9133 16.0007 12.634 16 12.3C16 11.8667 15.8374 11.546 15.512 11.338C15.1867 11.13 14.9577 10.8423 14.825 10.475C14.7917 10.625 14.7667 10.771 14.75 10.913C14.7334 11.055 14.7417 11.1757 14.775 11.275C14.8084 11.3917 14.846 11.5377 14.888 11.713C14.93 11.8883 14.934 12.059 14.9 12.225C14.8667 12.4083 14.7627 12.5917 14.588 12.775C14.4134 12.9583 14.2174 13.0917 14 13.175C14.1167 13.275 14.246 13.35 14.388 13.4C14.53 13.45 14.6757 13.475 14.825 13.475ZM15.15 14C15.65 14 16.0834 13.8333 16.45 13.5C16.8167 13.1667 17 12.7667 17 12.3C17 12.0333 16.929 11.7877 16.787 11.563C16.645 11.3383 16.4077 11.109 16.075 10.875C15.7424 10.641 15.434 10.3703 15.15 10.063C14.866 9.75567 14.6327 9.43467 14.45 9.1C13.9667 9.5 13.6084 9.921 13.375 10.363C13.1417 10.805 13.025 11.2507 13.025 11.7C13.025 12.3333 13.2334 12.875 13.65 13.325C14.0667 13.775 14.5667 14 15.15 14ZM12.875 16C12.7584 15.5667 12.5794 15.1667 12.338 14.8C12.0967 14.4333 11.8007 14.1083 11.45 13.825C11.3 13.5417 11.1877 13.25 11.113 12.95C11.0384 12.65 11.0007 12.3083 11 11.925C11 10.7917 11.321 9.771 11.963 8.863C12.605 7.955 13.634 7.06733 15.05 6.2C15.2 6.11667 15.346 6.11667 15.488 6.2C15.63 6.28333 15.709 6.41667 15.725 6.6C15.7584 7.13333 15.9127 7.63333 16.188 8.1C16.4634 8.56667 16.8674 8.98333 17.4 9.35C17.9334 9.73333 18.3334 10.1583 18.6 10.625C18.8667 11.0917 19 11.6417 19 12.275C19 12.575 18.9667 12.8543 18.9 13.113C18.8334 13.3717 18.725 13.6673 18.575 14H20V4H10V12C10 12.2833 9.90403 12.521 9.71203 12.713C9.52003 12.905 9.28269 13.0007 9.00003 13C8.71736 12.9993 8.48003 12.9033 8.28803 12.712C8.09603 12.5207 8.00003 12.2833 8.00003 12V4C8.00003 3.45 8.19603 2.97933 8.58803 2.588C8.98003 2.19667 9.45069 2.00067 10 2H20C20.55 2 21.021 2.196 21.413 2.588C21.805 2.98 22.0007 3.45067 22 4V14C22 14.55 21.8044 15.021 21.413 15.413C21.0217 15.805 20.5507 16.0007 20 16H12.875ZM5.50003 18V20.25C5.50003 20.4667 5.42903 20.646 5.28703 20.788C5.14503 20.93 4.96603 21.0007 4.75003 21C4.53403 20.9993 4.35503 20.9283 4.21303 20.787C4.07103 20.6457 4.00003 20.4667 4.00003 20.25V17.95C3.70003 17.8667 3.45003 17.7083 3.25003 17.475C3.05003 17.2417 2.93336 16.9583 2.90003 16.625L2.10003 8.075C2.06669 7.79167 2.15436 7.54167 2.36303 7.325C2.57169 7.10833 2.81736 7 3.10003 7C3.36669 7 3.59169 7.08767 3.77503 7.263C3.95836 7.43833 4.06669 7.65067 4.10003 7.9L4.72503 15H9.00003C9.55003 15 10.021 15.196 10.413 15.588C10.805 15.98 11.0007 16.4507 11 17C11 17.2833 10.904 17.521 10.712 17.713C10.52 17.905 10.2827 18.0007 10 18V20.25C10 20.4667 9.92903 20.646 9.78703 20.788C9.64503 20.93 9.46603 21.0007 9.25003 21C9.03403 20.9993 8.85503 20.9283 8.71303 20.787C8.57103 20.6457 8.50003 20.4667 8.50003 20.25V18H5.50003Z" fill="white"/>
</svg>
