<svg width="24" height="24" viewBox="0 0 24 24" fill="none" xmlns="http://www.w3.org/2000/svg">
<path d="M12.075 22C10.675 22 9.36264 21.7333 8.13798 21.2C6.91331 20.6667 5.84664 19.946 4.93798 19.038C4.02931 18.13 3.30831 17.0633 2.77498 15.838C2.24164 14.6127 1.97498 13.3 1.97498 11.9C1.97498 9.83333 2.54598 7.95833 3.68798 6.27499C4.82998 4.59166 6.35898 3.35833 8.27498 2.57499C8.50831 2.49166 8.74998 2.46233 8.99998 2.48699C9.24998 2.51166 9.45831 2.59099 9.62498 2.72499C9.75831 2.84166 9.86264 3.00433 9.93798 3.21299C10.0133 3.42166 10.0506 3.69233 10.05 4.02499C10.0833 5.34166 10.35 6.59599 10.85 7.78799C11.35 8.97999 12.0666 10.0423 13 10.975C13.9333 11.9077 15 12.6243 16.2 13.125C17.4 13.6257 18.6583 13.8923 19.975 13.925C20.325 13.925 20.5916 13.9543 20.775 14.013C20.9583 14.0717 21.1083 14.1673 21.225 14.3C21.3583 14.4667 21.446 14.6833 21.488 14.95C21.53 15.2167 21.509 15.4583 21.425 15.675C20.6583 17.5917 19.425 19.125 17.725 20.275C16.025 21.425 14.1416 22 12.075 22ZM12.075 20C13.5416 20 14.9 19.6333 16.15 18.9C17.4 18.1667 18.3833 17.1583 19.1 15.875C17.6666 15.7417 16.3083 15.3793 15.025 14.788C13.7416 14.1967 12.5916 13.3923 11.575 12.375C10.5583 11.3577 9.74998 10.2077 9.14998 8.92499C8.54998 7.64233 8.19164 6.28399 8.07498 4.84999C6.79164 5.56666 5.78764 6.55433 5.06298 7.81299C4.33831 9.07166 3.97564 10.434 3.97498 11.9C3.97498 14.15 4.76264 16.0627 6.33798 17.638C7.91331 19.2133 9.82564 20.0007 12.075 20ZM14.3 7.29999L12.7 5.69999C12.5 5.49999 12.4 5.26666 12.4 4.99999C12.4 4.73333 12.5 4.49999 12.7 4.29999L14.3 2.69999C14.5 2.49999 14.7333 2.39999 15 2.39999C15.2666 2.39999 15.5 2.49999 15.7 2.69999L17.3 4.29999C17.5 4.49999 17.6 4.73333 17.6 4.99999C17.6 5.26666 17.5 5.49999 17.3 5.69999L15.7 7.29999C15.5 7.49999 15.2666 7.59999 15 7.59999C14.7333 7.59999 14.5 7.49999 14.3 7.29999ZM19.3 10.3L18.7 9.69999C18.5 9.49999 18.4 9.26666 18.4 8.99999C18.4 8.73333 18.5 8.49999 18.7 8.29999L19.3 7.69999C19.5 7.49999 19.7333 7.39999 20 7.39999C20.2666 7.39999 20.5 7.49999 20.7 7.69999L21.3 8.29999C21.5 8.49999 21.6 8.73333 21.6 8.99999C21.6 9.26666 21.5 9.49999 21.3 9.69999L20.7 10.3C20.5 10.5 20.2666 10.6 20 10.6C19.7333 10.6 19.5 10.5 19.3 10.3Z" fill="white"/>
</svg>
