<svg width="24" height="24" viewBox="0 0 24 24" fill="none" xmlns="http://www.w3.org/2000/svg">
<path d="M10 23C10 22.45 10.196 21.9793 10.588 21.588C10.98 21.1967 11.4507 21.0007 12 21V15.275C12.15 15.3417 12.3083 15.3917 12.475 15.425C12.6417 15.4583 12.8167 15.475 13 15.475C13.7 15.475 14.2877 15.2377 14.763 14.763C15.2383 14.2883 15.4753 13.7007 15.474 13V12.775L18.674 13.55C18.9407 13.6167 19.1823 13.7333 19.399 13.9C19.6157 14.0667 19.7907 14.2667 19.924 14.5L22.199 18.6C22.449 19.05 22.5407 19.525 22.474 20.025C22.4073 20.525 22.1907 20.9583 21.824 21.325C21.3747 21.775 20.8377 22 20.213 22C19.5883 22 19.0507 21.775 18.6 21.325L14 16.725V21C14.55 21 15.021 21.196 15.413 21.588C15.805 21.98 16.0007 22.4507 16 23H10ZM4 21C3.71667 21 3.47934 20.904 3.288 20.712C3.09667 20.52 3.00067 20.2827 3 20C2.99934 19.7173 3.09534 19.48 3.288 19.288C3.48067 19.096 3.718 19 4 19H7C7.28334 19 7.521 19.096 7.713 19.288C7.905 19.48 8.00067 19.7173 8 20C7.99934 20.2827 7.90334 20.5203 7.712 20.713C7.52067 20.9057 7.28334 21.0013 7 21H4ZM7.15 16.75L2.65 15.475C2.16667 15.3417 1.771 15.071 1.463 14.663C1.155 14.255 1.00067 13.7923 1 13.275C1 12.6417 1.221 12.1043 1.663 11.663C2.105 11.2217 2.64234 11.0007 3.275 11H11.525C11.2083 11.2333 10.9627 11.521 10.788 11.863C10.6133 12.205 10.5257 12.584 10.525 13C10.525 13.3833 10.6 13.7333 10.75 14.05C10.9 14.3667 11.1083 14.6417 11.375 14.875L8.75 16.55C8.51667 16.6833 8.26234 16.771 7.987 16.813C7.71167 16.855 7.43267 16.834 7.15 16.75ZM13 14.5C12.5833 14.5 12.2293 14.3543 11.938 14.063C11.6467 13.7717 11.5007 13.4173 11.5 13C11.4993 12.5827 11.6453 12.2287 11.938 11.938C12.2307 11.6473 12.5847 11.5013 13 11.5C13.4153 11.4987 13.7697 11.6447 14.063 11.938C14.3563 12.2313 14.502 12.5853 14.5 13C14.498 13.4147 14.3523 13.769 14.063 14.063C13.7737 14.357 13.4193 14.5027 13 14.5ZM15.3 12.05C15.1167 11.6 14.8207 11.2333 14.412 10.95C14.0033 10.6667 13.5327 10.525 13 10.525C12.8167 10.525 12.6417 10.5417 12.475 10.575C12.3083 10.6083 12.15 10.6583 12 10.725V6.775C12 6.49167 12.0543 6.225 12.163 5.975C12.2717 5.725 12.4257 5.50833 12.625 5.325L16.05 2.125C16.4333 1.75833 16.8793 1.55 17.388 1.5C17.8967 1.45 18.3673 1.55833 18.8 1.825C19.3333 2.15833 19.6793 2.62933 19.838 3.238C19.9967 3.84667 19.909 4.41733 19.575 4.95L15.3 12.05ZM2 9C1.71667 9 1.47934 8.904 1.288 8.712C1.09667 8.52 1.00067 8.28267 1 8C0.999337 7.71733 1.09534 7.48 1.288 7.288C1.48067 7.096 1.718 7 2 7H5C5.28334 7 5.521 7.096 5.713 7.288C5.905 7.48 6.00067 7.71733 6 8C5.99934 8.28267 5.90334 8.52034 5.712 8.713C5.52067 8.90567 5.28334 9.00133 5 9H2ZM5 5C4.71667 5 4.47934 4.904 4.288 4.712C4.09667 4.52 4.00067 4.28267 4 4C3.99934 3.71733 4.09534 3.48 4.288 3.288C4.48067 3.096 4.718 3 5 3H9C9.28334 3 9.521 3.096 9.713 3.288C9.905 3.48 10.0007 3.71733 10 4C9.99934 4.28267 9.90334 4.52033 9.712 4.713C9.52067 4.90567 9.28334 5.00133 9 5H5Z" fill="white"/>
</svg>
